<?xml version="1.0" encoding="UTF-8" standalone="no"?>
<!DOCTYPE svg PUBLIC "-//W3C//DTD SVG 1.1//EN" "http://www.w3.org/Graphics/SVG/1.1/DTD/svg11.dtd">
<svg width="100%" height="100%" viewBox="0 0 60 60" version="1.1" xmlns="http://www.w3.org/2000/svg" xmlns:xlink="http://www.w3.org/1999/xlink" xml:space="preserve" xmlns:serif="http://www.serif.com/" style="fill-rule:evenodd;clip-rule:evenodd;stroke-linejoin:round;stroke-miterlimit:2;">
    <g transform="matrix(1,0,0,1,-347.682,-127.304)">
        <g id="icon_logo">
            <g id="Group_40313" transform="matrix(1,0,0,1,347.682,127.304)">
                <g id="Group_40312">
                    <g id="Group_39074">
                        <path id="Path_32914" d="M29.6,0C46.3,-0.1 59.9,13.3 60,30C60,46.5 46.8,59.8 30.4,60C13.8,60.2 0.2,47 0,30.4C-0.2,13.8 13.1,0.2 29.6,0ZM41.704,18.896C41.604,17.396 42.004,15.896 42.804,14.596L18.304,14.596C17.404,14.596 16.604,15.296 16.604,16.296L16.604,21.496C16.604,22.396 17.404,23.196 18.304,23.196L42.804,23.196C41.904,21.896 41.604,20.396 41.704,18.896ZM12.704,30.096C12.804,31.596 12.404,33.096 11.604,34.396L36.104,34.396C37.004,34.396 37.804,33.696 37.804,32.696L37.804,27.496C37.804,26.596 37.004,25.796 36.104,25.796L11.604,25.796C12.404,27.096 12.804,28.596 12.704,30.096ZM41.704,41.296C41.604,39.796 42.004,38.296 42.804,36.996L18.304,36.996C17.404,36.996 16.604,37.696 16.604,38.696L16.604,43.896C16.604,44.796 17.404,45.596 18.304,45.596L42.804,45.596C41.904,44.296 41.604,42.796 41.704,41.296Z" style="fill:rgb(0,237,190);"/>
                    </g>
                </g>
            </g>
            <g id="Group_45823">
            </g>
        </g>
    </g>
</svg>
