<?xml version="1.0" encoding="UTF-8" standalone="no"?>
<!DOCTYPE svg PUBLIC "-//W3C//DTD SVG 1.1//EN" "http://www.w3.org/Graphics/SVG/1.1/DTD/svg11.dtd">
<svg width="100%" height="100%" viewBox="0 0 1575 1575" version="1.1" xmlns="http://www.w3.org/2000/svg" xmlns:xlink="http://www.w3.org/1999/xlink" xml:space="preserve" xmlns:serif="http://www.serif.com/" style="fill-rule:evenodd;clip-rule:evenodd;stroke-linejoin:round;stroke-miterlimit:2;">
    <g transform="matrix(5.55556,0,0,5.55556,0,0)">
        <g>
            <path d="M141.73,283.46C122.6,283.46 104.04,279.71 86.56,272.32C69.68,265.18 54.53,254.96 41.51,241.95C28.5,228.94 18.28,213.78 11.14,196.9C3.75,179.42 0,160.86 0,141.73C0,122.6 3.75,104.04 11.14,86.56C18.28,69.68 28.5,54.53 41.51,41.51C54.53,28.5 69.68,18.28 86.56,11.14C104.04,3.75 122.6,0 141.73,0C160.86,0 179.42,3.75 196.9,11.14C213.78,18.28 228.93,28.5 241.95,41.51C254.96,54.52 265.18,69.68 272.32,86.56C279.71,104.04 283.46,122.6 283.46,141.73C283.46,160.86 279.71,179.42 272.32,196.9C265.18,213.78 254.96,228.93 241.95,241.95C228.94,254.96 213.78,265.18 196.9,272.32C179.42,279.72 160.86,283.46 141.73,283.46Z" style="fill:none;fill-rule:nonzero;"/>
        </g>
        <path d="M141.73,7.51C215.808,7.51 275.95,67.652 275.95,141.73C275.95,215.808 215.808,275.95 141.73,275.95C67.652,275.95 7.51,215.808 7.51,141.73C7.51,67.652 67.652,7.51 141.73,7.51ZM212.43,141.73C212.43,127.35 208.11,113.97 200.71,102.79L222.66,80.84L202.92,61.1L181.03,82.99C169.79,75.44 156.27,71.03 141.74,71.03C127.36,71.03 113.98,75.35 102.8,82.75L80.84,60.8L61.1,80.54L82.99,102.43C75.44,113.67 71.03,127.19 71.03,141.72C71.03,156.1 75.35,169.48 82.75,180.66L60.8,202.62L80.54,222.36L102.43,200.47C113.67,208.02 127.19,212.43 141.72,212.43C156.1,212.43 169.48,208.11 180.66,200.71L202.62,222.67L222.36,202.93L200.47,181.04C208.02,169.78 212.43,156.26 212.43,141.73ZM98.96,141.73C98.96,118.14 118.15,98.95 141.74,98.95C165.33,98.95 184.52,118.14 184.52,141.73C184.52,165.32 165.33,184.51 141.74,184.51C118.15,184.51 98.96,165.32 98.96,141.73Z"/>
    </g>
</svg>
